# xmcd CD database file
#
# Track frame offsets:
#	150
#	16301
#	36796
#	50091
#	68317
#	82047
#	96167
#	126712
#	155757
#	176964
#	196034
#	214354
#
# Disc length: 3016 seconds
#
# Revision: 1
# Processed by: cddbd v1.5.2PL0 Copyright (c) Steve Scherf et al.
# Submitted via: CDex 1.40Release
#
DISCID=ad0bc60c
DTITLE=Doug Jamieson - Country Matters
DYEAR=2006
DGENRE=Country
TTITLE0=Airbrush
TTITLE1=Slide On Over
TTITLE2=Don't Get Me Wrong
TTITLE3=Country Matters
TTITLE4=Way Too Long Since Lovin' You
TTITLE5=I Been So Alone
TTITLE6=Dear Diary
TTITLE7=8-Lane Bar and Grill
TTITLE8=Yippee Yi Yay
TTITLE9=Moral Dilemma
TTITLE10=Moonlight
TTITLE11=The Best
EXTD=YEAR: 2006 ID3G: 2
EXTT0=
EXTT1=
EXTT2=
EXTT3=
EXTT4=
EXTT5=
EXTT6=
EXTT7=
EXTT8=
EXTT9=
EXTT10=
EXTT11=
PLAYORDER=
